# xmcd
#
# Track frame offsets:
#	150
#	15821
#	29035
#	45589
#	60013
#	74852
#	91449
#	108813
#	129738
#	157086
#	170982
#	183817
#
# Disc length: 2667 seconds
#
# Revision: 1
# Processed by: cddbd v1.5.2PL0 Copyright (c) Steve Scherf et al.
# Submitted via: audiograbber 1.83.01
#
DISCID=9e0a690c
DTITLE=Swamptones - Swam Fiesta! w- Jumpin' Johnny Sansone
DYEAR=2004
DGENRE=
TTITLE0='58 Pink Cadillac
TTITLE1=She's Fine
TTITLE2=Feeling Fine
TTITLE3=Who Stole The Hot Sauce?
TTITLE4=One Thing
TTITLE5=Save The Last Dance For Me
TTITLE6=Back In New Orleans
TTITLE7=She Said, You Said, I Said
TTITLE8=Lost In Bayou
TTITLE9=Why You Wanna Hurt A Good Man
TTITLE10=I Saw Marie Laveaux
TTITLE11=Whiskey And Wild Woman
EXTD=
EXTT0=
EXTT1=
EXTT2=
EXTT3=
EXTT4=
EXTT5=
EXTT6=
EXTT7=
EXTT8=
EXTT9=
EXTT10=
EXTT11=
PLAYORDER=
